<?xml version="1.0" encoding="UTF-8"?>
<!DOCTYPE svg PUBLIC "-//W3C//DTD SVG 1.1//EN" "http://www.w3.org/Graphics/SVG/1.1/DTD/svg11.dtd">
<svg xmlns="http://www.w3.org/2000/svg" version="1.1" width="180px" height="180px" style="shape-rendering:geometricPrecision; text-rendering:geometricPrecision; image-rendering:optimizeQuality; fill-rule:evenodd; clip-rule:evenodd" xmlns:xlink="http://www.w3.org/1999/xlink">
<g><path style="opacity:1" fill="#fdfdfd" d="M -0.5,-0.5 C 59.5,-0.5 119.5,-0.5 179.5,-0.5C 179.5,59.5 179.5,119.5 179.5,179.5C 119.5,179.5 59.5,179.5 -0.5,179.5C -0.5,119.5 -0.5,59.5 -0.5,-0.5 Z"/></g>
<g><path style="opacity:1" fill="#1f407d" d="M 108.5,148.5 C 108.143,146.411 107.477,144.411 106.5,142.5C 99.3032,147.855 93.8032,154.521 90,162.5C 89.5012,166.486 89.3345,170.486 89.5,174.5C 73.7412,165.252 59.2412,154.252 46,141.5C 42.9412,136.608 41.7745,131.275 42.5,125.5C 42.6785,122.784 43.1785,120.117 44,117.5C 46.6667,113.5 49.3333,109.5 52,105.5C 52.6198,101.779 53.4532,98.1124 54.5,94.5C 56.0426,97.086 57.7093,99.586 59.5,102C 65.0696,105.202 70.9029,106.702 77,106.5C 77.413,103.768 78.0797,101.101 79,98.5C 78.9485,106.896 82.4485,113.396 89.5,118C 92.0385,118.796 94.3718,118.629 96.5,117.5C 103.186,117.423 108.853,115.09 113.5,110.5C 115.188,112.029 116.521,113.863 117.5,116C 119.833,116.667 122.167,116.667 124.5,116C 129.754,110.747 131.421,104.58 129.5,97.5C 130.058,93.3231 130.724,89.1564 131.5,85C 131.664,82.4563 130.997,80.2897 129.5,78.5C 128.871,75.8711 127.205,74.2044 124.5,73.5C 126.052,67.553 123.885,65.553 118,67.5C 117.652,71.1898 119.152,74.0232 122.5,76C 120.559,76.7429 118.726,76.5762 117,75.5C 115.266,72.7022 114.099,69.7022 113.5,66.5C 113.859,62.6437 116.026,60.6437 120,60.5C 125.021,61.3562 127.854,64.3562 128.5,69.5C 129.641,67.5787 129.808,65.5787 129,63.5C 127.818,61.6564 126.651,59.8231 125.5,58C 128.088,53.4594 128.921,48.626 128,43.5C 126.287,38.962 123.12,37.462 118.5,39C 114.249,40.038 110.749,42.2047 108,45.5C 95.1778,41.3357 82.0112,39.5024 68.5,40C 66.2046,36.7026 63.538,33.7026 60.5,31C 55.3941,31.729 51.5607,34.5623 49,39.5C 48.7601,45.514 48.7601,51.514 49,57.5C 47.6667,56.1667 46.3333,56.1667 45,57.5C 39.9149,63.9971 35.5816,70.9971 32,78.5C 31.042,81.0747 30.542,83.7414 30.5,86.5C 31.3631,91.8211 31.5297,97.1544 31,102.5C 29.3269,107.177 27.6602,111.843 26,116.5C 20.3731,106.903 16.7065,96.5694 15,85.5C 14.3333,64.1667 14.3333,42.8333 15,21.5C 45.1437,10.2664 76.3103,6.09977 108.5,9C 127.6,10.7045 146.1,14.8712 164,21.5C 164.667,42.8333 164.667,64.1667 164,85.5C 161.49,101.849 155.157,116.516 145,129.5C 136.578,139.925 126.911,148.925 116,156.5C 111.954,155.287 109.454,152.62 108.5,148.5 Z"/></g>
<g><path style="opacity:1" fill="#22427e" d="M 55.5,35.5 C 56.8221,35.33 57.9887,35.6634 59,36.5C 61.7716,41.0445 64.2716,45.7112 66.5,50.5C 66.4712,52.0293 65.8045,53.196 64.5,54C 62.3228,55.5149 60.1561,57.0149 58,58.5C 55.3555,56.565 53.6888,53.8984 53,50.5C 51.776,45.0435 52.6093,40.0435 55.5,35.5 Z"/></g>
<g><path style="opacity:1" fill="#294781" d="M 122.5,42.5 C 123.496,42.4142 124.329,42.7476 125,43.5C 126.007,48.1113 125.34,52.4446 123,56.5C 120.357,55.0237 118.19,53.0237 116.5,50.5C 118.909,48.0976 120.909,45.4309 122.5,42.5 Z"/></g>
<g><path style="opacity:1" fill="#26457f" d="M 98.5,65.5 C 98.6602,67.1992 98.4935,68.8659 98,70.5C 96.6244,71.7051 95.4577,73.0384 94.5,74.5C 93.7611,74.631 93.0944,74.4643 92.5,74C 95.587,69.2256 94.2536,66.3922 88.5,65.5C 79.5989,67.8846 79.2655,71.218 87.5,75.5C 86.5,75.8333 85.5,76.1667 84.5,76.5C 80.7835,74.4674 76.7835,73.4674 72.5,73.5C 72.9347,66.8931 76.268,62.3931 82.5,60C 89.302,58.2092 94.6353,60.0425 98.5,65.5 Z"/></g>
<g><path style="opacity:1" fill="#97bde5" d="M 96.5,117.5 C 94.3718,118.629 92.0385,118.796 89.5,118C 82.4485,113.396 78.9485,106.896 79,98.5C 78.0797,101.101 77.413,103.768 77,106.5C 70.9029,106.702 65.0696,105.202 59.5,102C 57.7093,99.586 56.0426,97.086 54.5,94.5C 53.4532,98.1124 52.6198,101.779 52,105.5C 49.3333,109.5 46.6667,113.5 44,117.5C 43.1785,120.117 42.6785,122.784 42.5,125.5C 40.7797,120.449 39.7797,115.115 39.5,109.5C 39.5153,107.366 40.0153,105.366 41,103.5C 43.9113,100.01 46.578,96.3438 49,92.5C 49.4997,84.5069 49.6664,76.5069 49.5,68.5C 50.8221,68.33 51.9887,68.6634 53,69.5C 54.7248,72.674 56.0581,76.0073 57,79.5C 57.8333,80.3333 58.6667,81.1667 59.5,82C 68.9924,84.2597 78.4924,86.4264 88,88.5C 90.3013,92.7372 91.8013,97.2372 92.5,102C 90.7568,106.69 90.2568,111.523 91,116.5C 92.6995,117.406 94.5328,117.739 96.5,117.5 Z"/></g>
<g><path style="opacity:1" fill="#9abfe6" d="M 98.5,65.5 C 104.03,73.7333 108.03,82.7333 110.5,92.5C 108.117,93.8851 106.45,95.8851 105.5,98.5C 103.883,91.8126 101.717,85.1459 99,78.5C 98.2525,76.249 96.7525,74.9156 94.5,74.5C 95.4577,73.0384 96.6244,71.7051 98,70.5C 98.4935,68.8659 98.6602,67.1992 98.5,65.5 Z"/></g>
<g><path style="opacity:1" fill="#96bce3" d="M 129.5,78.5 C 130.997,80.2897 131.664,82.4563 131.5,85C 130.724,89.1564 130.058,93.3231 129.5,97.5C 127.272,94.0502 125.272,90.3835 123.5,86.5C 125.486,83.8353 127.486,81.1686 129.5,78.5 Z"/></g>
<g><path style="opacity:1" fill="#284680" d="M 110.5,92.5 C 115.179,92.3342 119.845,92.5008 124.5,93C 127.87,97.7789 126.536,100.112 120.5,100C 119.33,103.178 117.33,105.678 114.5,107.5C 114.113,105.269 113.947,102.936 114,100.5C 111.379,99.0085 108.545,98.3418 105.5,98.5C 106.45,95.8851 108.117,93.8851 110.5,92.5 Z"/></g>
<g><path style="opacity:1" fill="#f3f4f7" d="M 105.5,118.5 C 108.85,118.335 112.183,118.502 115.5,119C 117.286,119.196 118.619,120.029 119.5,121.5C 117.976,123.858 115.976,125.691 113.5,127C 108.167,127.667 102.833,127.667 97.5,127C 94.9683,126.388 94.1349,124.888 95,122.5C 98.4146,120.644 101.915,119.311 105.5,118.5 Z"/></g>
<g><path style="opacity:1" fill="#96bde5" d="M 108.5,148.5 C 106.715,153.067 105.882,158.067 106,163.5C 100.729,167.549 95.2294,171.216 89.5,174.5C 89.3345,170.486 89.5012,166.486 90,162.5C 93.8032,154.521 99.3032,147.855 106.5,142.5C 107.477,144.411 108.143,146.411 108.5,148.5 Z"/></g>
</svg>
