<?xml version="1.0" encoding="UTF-8"?>
<!DOCTYPE svg PUBLIC "-//W3C//DTD SVG 1.1//EN" "http://www.w3.org/Graphics/SVG/1.1/DTD/svg11.dtd">
<svg xmlns="http://www.w3.org/2000/svg" version="1.1" width="644px" height="221px" style="shape-rendering:geometricPrecision; text-rendering:geometricPrecision; image-rendering:optimizeQuality; fill-rule:evenodd; clip-rule:evenodd" xmlns:xlink="http://www.w3.org/1999/xlink">
<g><path style="opacity:0.943" fill="#fafafc" d="M 87.5,5.5 C 127.027,2.6231 165.36,7.95644 202.5,21.5C 203.921,49.8529 203.754,78.1863 202,106.5C 195.724,134.224 181.891,157.39 160.5,176C 144.903,189.376 128.07,200.876 110,210.5C 81.0982,194.935 56.4315,174.269 36,148.5C 26.9648,134.756 20.9648,119.756 18,103.5C 17.1668,76.1606 17.3335,48.8272 18.5,21.5C 40.9111,13.0882 63.9111,7.75484 87.5,5.5 Z"/></g>
<g><path style="opacity:1" fill="#aebad0" d="M 132.5,13.5 C 137.731,13.4443 142.731,14.111 147.5,15.5C 142.269,15.5557 137.269,14.889 132.5,13.5 Z"/></g>
<g><path style="opacity:1" fill="#1f407c" d="M 132.5,13.5 C 137.269,14.889 142.269,15.5557 147.5,15.5C 163.493,17.7653 179.16,21.432 194.5,26.5C 195.488,48.0913 195.822,69.758 195.5,91.5C 193.004,120.99 181.004,145.824 159.5,166C 154.124,171.044 148.458,175.711 142.5,180C 136.343,180.026 132.676,176.859 131.5,170.5C 131.5,168.833 131.5,167.167 131.5,165.5C 124.304,169.855 118.138,175.521 113,182.5C 111.518,188.75 110.018,194.75 108.5,200.5C 96.0091,193.085 84.0091,184.919 72.5,176C 67.2277,171.235 62.5611,166.069 58.5,160.5C 57.4754,152.861 57.3088,145.195 58,137.5C 61.8339,132.503 65.1672,127.17 68,121.5C 68.2348,117.68 69.0682,114.013 70.5,110.5C 72.6237,113.004 74.2904,115.837 75.5,119C 81.7713,122.821 88.4379,124.654 95.5,124.5C 96.8156,121.616 97.8156,118.616 98.5,115.5C 98.9117,123.488 101.912,130.322 107.5,136C 109.025,137.009 110.692,137.509 112.5,137.5C 119.307,137.172 125.974,136.005 132.5,134C 134.355,132.145 136.188,130.312 138,128.5C 139.652,131.086 141.485,133.586 143.5,136C 145.5,136.667 147.5,136.667 149.5,136C 155.545,130.42 158.045,123.586 157,115.5C 155.961,114.756 155.461,113.756 155.5,112.5C 156.644,108.253 157.311,103.92 157.5,99.5C 157.657,96.1864 156.991,93.1864 155.5,90.5C 154.378,89.0527 152.878,88.0527 151,87.5C 152.417,81.2494 149.917,78.416 143.5,79C 142.643,79.6891 141.977,80.5224 141.5,81.5C 142.453,84.43 144.12,86.7633 146.5,88.5C 145.791,89.404 144.791,89.7373 143.5,89.5C 139.599,85.6264 137.765,80.9598 138,75.5C 143.669,71.024 148.669,71.6906 153,77.5C 153.192,79.5767 153.692,81.5767 154.5,83.5C 155.086,83.2907 155.586,82.9574 156,82.5C 156.667,80.1667 156.667,77.8333 156,75.5C 154.485,73.3228 152.985,71.1561 151.5,69C 154.336,63.4885 155.17,57.6552 154,51.5C 153.051,49.9069 151.885,48.5736 150.5,47.5C 147.041,46.1353 143.708,46.4686 140.5,48.5C 136.586,49.4139 133.92,51.7472 132.5,55.5C 117.964,50.3217 102.964,48.155 87.5,49C 84.536,45.0342 81.2026,41.3675 77.5,38C 75.3646,37.3653 73.3646,37.6986 71.5,39C 63.029,46.5143 61.029,55.681 65.5,66.5C 65.1667,67.1667 64.8333,67.8333 64.5,68.5C 63.7836,67.689 62.9503,67.0223 62,66.5C 54.515,74.7844 48.515,84.1178 44,94.5C 44.051,102.831 44.051,111.165 44,119.5C 41.4288,124.638 39.4288,129.972 38,135.5C 33.0174,126.387 29.5174,116.72 27.5,106.5C 26.9492,103.193 26.6159,99.8599 26.5,96.5C 26.1774,73.0918 26.5108,49.7584 27.5,26.5C 32.1646,25.9431 36.4979,24.6098 40.5,22.5C 51.2539,18.9297 62.2539,16.4297 73.5,15C 93.1414,13.6707 112.808,13.1707 132.5,13.5 Z"/></g>
<g><path style="opacity:1" fill="#4d6495" d="M 40.5,22.5 C 36.4979,24.6098 32.1646,25.9431 27.5,26.5C 31.5021,24.3902 35.8354,23.0569 40.5,22.5 Z"/></g>
<g><path style="opacity:1" fill="#dfe4ec" d="M 194.5,26.5 C 195.832,36.9788 196.499,47.8121 196.5,59C 196.5,70.0052 196.167,80.8386 195.5,91.5C 195.822,69.758 195.488,48.0913 194.5,26.5 Z"/></g>
<g><path style="opacity:1" fill="#39578b" d="M 27.5,26.5 C 26.5108,49.7584 26.1774,73.0918 26.5,96.5C 26.1667,96.5 25.8333,96.5 25.5,96.5C 24.8435,72.8094 25.5101,49.4761 27.5,26.5 Z"/></g>
<g><path style="opacity:1" fill="#22417d" d="M 70.5,64.5 C 68.8483,59.6591 68.1817,54.6591 68.5,49.5C 69.5364,45.5571 71.8697,43.8904 75.5,44.5C 78.6343,49.9358 81.6343,55.4358 84.5,61C 81.6827,64.1467 78.516,66.98 75,69.5C 72.6225,68.6225 71.1225,66.9558 70.5,64.5 Z"/></g>
<g><path style="opacity:1" fill="#b7c1d4" d="M 150.5,47.5 C 147.14,47.6159 143.807,47.9492 140.5,48.5C 143.708,46.4686 147.041,46.1353 150.5,47.5 Z"/></g>
<g><path style="opacity:0.849" fill="#1e407c" d="M 454.5,48.5 C 463.4,47.8071 472.066,48.8071 480.5,51.5C 481.494,56.456 481.827,61.456 481.5,66.5C 477.5,66.5 473.5,66.5 469.5,66.5C 469.958,63.6062 469.291,61.1062 467.5,59C 461.683,57.2399 457.35,58.9066 454.5,64C 455.13,65.892 456.13,67.5587 457.5,69C 465.879,70.2328 473.379,73.3995 480,78.5C 485.293,87.6067 484.46,96.1067 477.5,104C 469.328,108.223 460.661,109.557 451.5,108C 447.793,107.263 444.127,106.429 440.5,105.5C 440.5,99.8333 440.5,94.1667 440.5,88.5C 444.5,88.5 448.5,88.5 452.5,88.5C 452.5,91.1667 452.5,93.8333 452.5,96.5C 456.808,97.3676 461.141,97.5343 465.5,97C 470.815,93.3832 470.815,89.7166 465.5,86C 458.879,84.4288 452.546,82.0955 446.5,79C 438.96,70.6585 438.627,61.9918 445.5,53C 448.592,51.4541 451.592,49.9541 454.5,48.5 Z"/></g>
<g><path style="opacity:0.854" fill="#1e407c" d="M 232.5,49.5 C 244.171,49.3335 255.838,49.5001 267.5,50C 280.043,54.2775 284.21,62.7775 280,75.5C 277.044,80.2315 272.877,83.3981 267.5,85C 262.136,85.1705 256.802,85.6705 251.5,86.5C 252.803,90.0316 252.803,93.5316 251.5,97C 253.473,97.4955 255.473,97.6621 257.5,97.5C 257.5,100.833 257.5,104.167 257.5,107.5C 249.167,107.5 240.833,107.5 232.5,107.5C 232.5,104.167 232.5,100.833 232.5,97.5C 234.5,97.5 236.5,97.5 238.5,97.5C 238.5,84.8333 238.5,72.1667 238.5,59.5C 236.5,59.5 234.5,59.5 232.5,59.5C 232.5,56.1667 232.5,52.8333 232.5,49.5 Z M 251.5,60.5 C 255.769,59.109 260.102,59.2756 264.5,61C 268.082,65.0103 268.248,69.1769 265,73.5C 260.696,75.4141 256.196,75.9141 251.5,75C 252.824,70.0671 252.824,65.2337 251.5,60.5 Z"/></g>
<g><path style="opacity:1" fill="#25427e" d="M 148.5,51.5 C 149.496,51.4142 150.329,51.7476 151,52.5C 152.392,57.9163 151.226,62.5829 147.5,66.5C 145.329,64.8281 143.329,62.9948 141.5,61C 143.265,57.4038 145.598,54.2371 148.5,51.5 Z"/></g>
<g><path style="opacity:0.821" fill="#1e407c" d="M 491.5,54.5 C 496.167,54.5 500.833,54.5 505.5,54.5C 505.5,57.5 505.5,60.5 505.5,63.5C 509.167,63.5 512.833,63.5 516.5,63.5C 516.5,66.8333 516.5,70.1667 516.5,73.5C 512.486,73.3345 508.486,73.5012 504.5,74C 505.182,81.4693 505.849,88.9693 506.5,96.5C 509.768,97.487 513.102,97.8204 516.5,97.5C 516.5,100.833 516.5,104.167 516.5,107.5C 511.528,108.422 506.528,108.588 501.5,108C 495.882,106.715 492.715,103.215 492,97.5C 491.5,89.5069 491.334,81.5069 491.5,73.5C 489.833,73.5 488.167,73.5 486.5,73.5C 486.5,70.1667 486.5,66.8333 486.5,63.5C 488.167,63.5 489.833,63.5 491.5,63.5C 491.5,60.5 491.5,57.5 491.5,54.5 Z"/></g>
<g><path style="opacity:0.821" fill="#1e407c" d="M 567.5,54.5 C 572.167,54.5 576.833,54.5 581.5,54.5C 581.5,57.5 581.5,60.5 581.5,63.5C 585.167,63.5 588.833,63.5 592.5,63.5C 592.5,66.8333 592.5,70.1667 592.5,73.5C 588.486,73.3345 584.486,73.5012 580.5,74C 581.316,81.4205 581.816,88.9205 582,96.5C 585.394,97.4558 588.894,97.7892 592.5,97.5C 592.5,100.833 592.5,104.167 592.5,107.5C 587.528,108.422 582.528,108.588 577.5,108C 571.882,106.715 568.715,103.215 568,97.5C 567.5,89.5069 567.334,81.5069 567.5,73.5C 565.833,73.5 564.167,73.5 562.5,73.5C 562.5,70.1667 562.5,66.8333 562.5,63.5C 564.167,63.5 565.833,63.5 567.5,63.5C 567.5,60.5 567.5,57.5 567.5,54.5 Z"/></g>
<g><path style="opacity:1" fill="#c5cddd" d="M 68.5,49.5 C 68.1817,54.6591 68.8483,59.6591 70.5,64.5C 69.0337,63.653 68.2004,62.3197 68,60.5C 67.1901,56.6425 67.3567,52.9758 68.5,49.5 Z"/></g>
<g><path style="opacity:0.825" fill="#1e407c" d="M 297.5,62.5 C 316.65,61.151 325.65,69.9844 324.5,89C 314.922,89.8176 305.422,89.6509 296,88.5C 296.087,92.8115 298.254,95.6448 302.5,97C 309.283,97.7987 315.95,97.2987 322.5,95.5C 324.453,103.493 321.453,107.66 313.5,108C 288.775,110.612 278.608,99.7787 283,75.5C 286.162,69.1641 290.996,64.8308 297.5,62.5 Z M 299.5,72.5 C 306.011,70.7215 309.678,73.0549 310.5,79.5C 305.489,79.6659 300.489,79.4993 295.5,79C 296.234,76.4393 297.567,74.2726 299.5,72.5 Z"/></g>
<g><path style="opacity:0.837" fill="#1e407c" d="M 353.5,62.5 C 365.71,61.2238 372.876,66.5572 375,78.5C 375.809,84.7489 375.642,90.9156 374.5,97C 376.134,97.4935 377.801,97.6602 379.5,97.5C 379.5,100.833 379.5,104.167 379.5,107.5C 372.167,107.5 364.833,107.5 357.5,107.5C 357.5,104.167 357.5,100.833 357.5,97.5C 358.833,97.5 360.167,97.5 361.5,97.5C 361.666,91.1579 361.5,84.8246 361,78.5C 359.982,75.3171 357.815,73.9838 354.5,74.5C 352.074,74.4035 349.907,75.0702 348,76.5C 346.616,83.4112 346.116,90.4112 346.5,97.5C 348.167,97.5 349.833,97.5 351.5,97.5C 351.5,100.833 351.5,104.167 351.5,107.5C 343.833,107.5 336.167,107.5 328.5,107.5C 328.5,104.167 328.5,100.833 328.5,97.5C 330.167,97.5 331.833,97.5 333.5,97.5C 333.5,89.5 333.5,81.5 333.5,73.5C 331.5,73.5 329.5,73.5 327.5,73.5C 327.5,70.1667 327.5,66.8333 327.5,63.5C 333.5,63.5 339.5,63.5 345.5,63.5C 345.343,64.8734 345.51,66.2068 346,67.5C 348.17,65.1769 350.67,63.5103 353.5,62.5 Z"/></g>
<g><path style="opacity:0.841" fill="#1e407c" d="M 407.5,62.5 C 417.529,60.776 424.696,64.4426 429,73.5C 429.5,81.4931 429.666,89.4931 429.5,97.5C 431.167,97.5 432.833,97.5 434.5,97.5C 434.5,100.833 434.5,104.167 434.5,107.5C 426.833,107.5 419.167,107.5 411.5,107.5C 411.5,104.167 411.5,100.833 411.5,97.5C 413.167,97.5 414.833,97.5 416.5,97.5C 416.666,91.1579 416.5,84.8246 416,78.5C 414.607,75.6339 412.274,74.3006 409,74.5C 405.726,74.3006 403.393,75.6339 402,78.5C 401.5,84.8246 401.334,91.1579 401.5,97.5C 403.167,97.5 404.833,97.5 406.5,97.5C 406.5,100.833 406.5,104.167 406.5,107.5C 398.833,107.5 391.167,107.5 383.5,107.5C 383.5,104.167 383.5,100.833 383.5,97.5C 385.167,97.5 386.833,97.5 388.5,97.5C 388.5,89.5 388.5,81.5 388.5,73.5C 386.5,73.5 384.5,73.5 382.5,73.5C 382.5,70.1667 382.5,66.8333 382.5,63.5C 388.5,63.5 394.5,63.5 400.5,63.5C 400.343,64.8734 400.51,66.2068 401,67.5C 402.926,65.4611 405.093,63.7945 407.5,62.5 Z"/></g>
<g><path style="opacity:0.828" fill="#1e407c" d="M 531.5,62.5 C 541.253,60.6959 549.42,63.3626 556,70.5C 558.601,79.2514 559.101,88.0847 557.5,97C 559.134,97.4935 560.801,97.6602 562.5,97.5C 562.5,100.833 562.5,104.167 562.5,107.5C 557.167,107.5 551.833,107.5 546.5,107.5C 546.657,106.127 546.49,104.793 546,103.5C 541.078,108.202 535.245,109.702 528.5,108C 517.393,102.35 515.726,94.6832 523.5,85C 530.411,81.5177 537.745,80.0177 545.5,80.5C 545.918,75.0853 543.418,72.4186 538,72.5C 535.813,72.7885 533.646,73.1218 531.5,73.5C 531.5,75.5 531.5,77.5 531.5,79.5C 527.833,79.5 524.167,79.5 520.5,79.5C 520.5,75.1667 520.5,70.8333 520.5,66.5C 524.383,65.5412 528.05,64.2078 531.5,62.5 Z M 537.5,89.5 C 540.247,89.1866 542.914,89.52 545.5,90.5C 542.305,99.3016 537.639,100.468 531.5,94C 533.03,91.749 535.03,90.249 537.5,89.5 Z"/></g>
<g><path style="opacity:0.833" fill="#1e407c" d="M 609.5,62.5 C 625.577,61.2436 634.911,68.577 637.5,84.5C 637.351,86.3197 636.684,87.8197 635.5,89C 626.255,89.817 617.089,89.6503 608,88.5C 607.792,92.9784 609.958,95.8117 614.5,97C 620.962,97.8491 627.295,97.3491 633.5,95.5C 633.665,98.8499 633.498,102.183 633,105.5C 622.258,109.917 611.758,109.417 601.5,104C 593.494,95.9471 591.327,86.4471 595,75.5C 598.162,69.1641 602.996,64.8308 609.5,62.5 Z M 611.5,72.5 C 617.781,71.1233 621.448,73.4566 622.5,79.5C 617.456,79.8275 612.456,79.4941 607.5,78.5C 608.361,76.0894 609.694,74.0894 611.5,72.5 Z"/></g>
<g><path style="opacity:1" fill="#27447f" d="M 120.5,77.5 C 120.662,79.5273 120.495,81.5273 120,83.5C 118.624,84.7051 117.458,86.0384 116.5,87.5C 113.999,87.4891 113.832,86.8224 116,85.5C 115.686,78.8772 112.186,76.3772 105.5,78C 100.031,82.6237 100.698,86.2904 107.5,89C 103.376,90.0557 99.7096,89.2224 96.5,86.5C 94.9291,87.3094 93.2624,87.6427 91.5,87.5C 91.3997,79.0901 95.3997,73.5901 103.5,71C 110.939,68.7916 116.606,70.9583 120.5,77.5 Z"/></g>
<g><path style="opacity:1" fill="#95bce4" d="M 112.5,137.5 C 110.692,137.509 109.025,137.009 107.5,136C 101.912,130.322 98.9117,123.488 98.5,115.5C 97.8156,118.616 96.8156,121.616 95.5,124.5C 88.4379,124.654 81.7713,122.821 75.5,119C 74.2904,115.837 72.6237,113.004 70.5,110.5C 69.0682,114.013 68.2348,117.68 68,121.5C 65.1672,127.17 61.8339,132.503 58,137.5C 57.3088,145.195 57.4754,152.861 58.5,160.5C 57.7321,159.737 57.2321,158.737 57,157.5C 55.197,145.552 54.5303,133.552 55,121.5C 58.7256,116.772 62.0589,111.772 65,106.5C 65.247,98.241 65.4137,90.0743 65.5,82C 67.3668,81.2888 68.8668,81.7888 70,83.5C 71.0284,88.6053 73.1951,93.1053 76.5,97C 78.087,97.8624 79.7536,98.5291 81.5,99C 89.5,100 97.5,101 105.5,102C 107.286,102.785 108.786,103.951 110,105.5C 113.993,113.889 114.493,122.389 111.5,131C 111.566,133.255 111.899,135.422 112.5,137.5 Z"/></g>
<g><path style="opacity:1" fill="#98bee5" d="M 120.5,77.5 C 122.86,79.7126 124.694,82.3793 126,85.5C 129.472,93.0774 132.306,100.744 134.5,108.5C 131.089,109.58 129.089,111.914 128.5,115.5C 127.146,107.264 124.646,99.2642 121,91.5C 120.252,89.249 118.752,87.9156 116.5,87.5C 117.458,86.0384 118.624,84.7051 120,83.5C 120.495,81.5273 120.662,79.5273 120.5,77.5 Z"/></g>
<g><path style="opacity:1" fill="#7186ac" d="M 146.5,88.5 C 148.379,88.3932 148.712,88.8932 147.5,90C 145.934,90.765 144.601,90.5983 143.5,89.5C 144.791,89.7373 145.791,89.404 146.5,88.5 Z"/></g>
<g><path style="opacity:1" fill="#97bee6" d="M 155.5,90.5 C 156.991,93.1864 157.657,96.1864 157.5,99.5C 157.311,103.92 156.644,108.253 155.5,112.5C 152.809,108.964 150.476,105.131 148.5,101C 150.29,98.8358 152.456,97.0025 155,95.5C 155.494,93.8659 155.66,92.1992 155.5,90.5 Z"/></g>
<g><path style="opacity:1" fill="#a8b4cc" d="M 25.5,96.5 C 25.8333,96.5 26.1667,96.5 26.5,96.5C 26.6159,99.8599 26.9492,103.193 27.5,106.5C 26.7784,106.082 26.2784,105.416 26,104.5C 25.5026,101.854 25.3359,99.1873 25.5,96.5 Z"/></g>
<g><path style="opacity:1" fill="#284580" d="M 134.5,108.5 C 139.511,108.334 144.511,108.501 149.5,109C 152.2,109.949 153.033,111.783 152,114.5C 150.174,116.074 148.007,116.907 145.5,117C 144.101,119.74 142.434,122.24 140.5,124.5C 139.761,124.631 139.094,124.464 138.5,124C 139.807,122.057 139.807,120.223 138.5,118.5C 138.389,117.883 138.056,117.383 137.5,117C 134.522,116.304 131.522,115.804 128.5,115.5C 129.089,111.914 131.089,109.58 134.5,108.5 Z"/></g>
<g><path style="opacity:1" fill="#6d81a9" d="M 138.5,118.5 C 139.807,120.223 139.807,122.057 138.5,124C 139.094,124.464 139.761,124.631 140.5,124.5C 139.791,125.404 138.791,125.737 137.5,125.5C 137.993,123.194 138.326,120.861 138.5,118.5 Z"/></g>
<g><path style="opacity:1" fill="#f0f2f6" d="M 126.5,138.5 C 131.511,138.334 136.511,138.501 141.5,139C 143.18,139.347 144.18,140.347 144.5,142C 142.825,144.685 140.492,146.685 137.5,148C 131.167,148.667 124.833,148.667 118.5,148C 115.941,146.677 115.275,144.843 116.5,142.5C 119.688,140.554 123.021,139.221 126.5,138.5 Z"/></g>
<g><path style="opacity:1" fill="#95bde4" d="M 131.5,170.5 C 130.883,170.611 130.383,170.944 130,171.5C 129.845,177.561 129.678,183.561 129.5,189.5C 123.235,193.883 116.735,197.883 110,201.5C 109.235,201.43 108.735,201.097 108.5,200.5C 110.018,194.75 111.518,188.75 113,182.5C 118.138,175.521 124.304,169.855 131.5,165.5C 131.5,167.167 131.5,168.833 131.5,170.5 Z"/></g>
</svg>
